# Blender v2.69 (sub 0) OBJ File: 'Orb.blend'
# www.blender.org
v 0.076537 0.184776 0.000000
v 0.141421 0.141421 0.000000
v 0.184776 0.076537 0.000000
v 0.200000 -0.000000 0.000000
v 0.184776 -0.076537 0.000000
v 0.141421 -0.141421 0.000000
v 0.076537 -0.184776 0.000000
v 0.070711 0.184776 0.029289
v 0.130656 0.141421 0.054120
v 0.170711 0.076537 0.070711
v 0.184776 -0.000000 0.076537
v 0.170711 -0.076537 0.070711
v 0.130656 -0.141421 0.054120
v 0.070711 -0.184776 0.029289
v 0.054120 0.184776 0.054120
v 0.100000 0.141421 0.100000
v 0.130656 0.076537 0.130656
v 0.141421 -0.000000 0.141421
v 0.130656 -0.076537 0.130656
v 0.100000 -0.141421 0.100000
v 0.054120 -0.184776 0.054120
v 0.029289 0.184776 0.070711
v 0.054120 0.141421 0.130656
v 0.070711 0.076537 0.170711
v 0.076537 -0.000000 0.184776
v 0.070711 -0.076537 0.170711
v 0.054120 -0.141421 0.130656
v 0.029289 -0.184776 0.070711
v 0.000000 0.184776 0.076537
v 0.000000 0.141421 0.141421
v 0.000000 0.076537 0.184776
v 0.000000 -0.000000 0.200000
v 0.000000 -0.076537 0.184776
v 0.000000 -0.141421 0.141421
v 0.000000 -0.184776 0.076537
v 0.000000 0.200000 -0.000000
v -0.029289 0.184776 0.070711
v -0.054120 0.141421 0.130656
v -0.070711 0.076537 0.170711
v -0.076537 -0.000000 0.184776
v -0.070711 -0.076537 0.170711
v -0.054120 -0.141421 0.130656
v -0.029289 -0.184776 0.070711
v -0.054120 0.184776 0.054120
v -0.100000 0.141421 0.100000
v -0.130656 0.076537 0.130656
v -0.141421 -0.000000 0.141421
v -0.130656 -0.076537 0.130656
v -0.100000 -0.141421 0.100000
v -0.054120 -0.184776 0.054120
v -0.070711 0.184776 0.029289
v -0.130656 0.141421 0.054120
v -0.170711 0.076537 0.070711
v -0.184776 -0.000000 0.076537
v -0.170711 -0.076537 0.070711
v -0.130656 -0.141421 0.054120
v -0.070711 -0.184776 0.029289
v -0.076537 0.184776 -0.000000
v -0.141421 0.141421 -0.000000
v -0.184776 0.076537 -0.000000
v -0.200000 -0.000000 -0.000000
v -0.184776 -0.076537 -0.000000
v -0.141421 -0.141421 -0.000000
v -0.076537 -0.184776 -0.000000
v -0.070711 0.184776 -0.029289
v -0.130656 0.141421 -0.054120
v -0.170711 0.076537 -0.070711
v -0.184776 -0.000000 -0.076537
v -0.170711 -0.076537 -0.070711
v -0.130656 -0.141421 -0.054120
v -0.070711 -0.184776 -0.029289
v -0.054120 0.184776 -0.054120
v -0.100000 0.141421 -0.100000
v -0.130656 0.076537 -0.130656
v -0.141421 -0.000000 -0.141421
v -0.130656 -0.076537 -0.130656
v -0.100000 -0.141421 -0.100000
v -0.054120 -0.184776 -0.054120
v -0.029289 0.184776 -0.070711
v -0.054120 0.141421 -0.130656
v -0.070711 0.076537 -0.170711
v -0.076537 -0.000000 -0.184776
v -0.070711 -0.076537 -0.170711
v -0.054120 -0.141421 -0.130656
v -0.029289 -0.184776 -0.070711
v 0.000000 0.184776 -0.076537
v 0.000000 0.141421 -0.141421
v 0.000000 0.076537 -0.184776
v 0.000000 -0.000000 -0.200000
v 0.000000 -0.076537 -0.184776
v 0.000000 -0.141421 -0.141421
v 0.000000 -0.184776 -0.076537
v 0.029289 0.184776 -0.070711
v 0.054120 0.141421 -0.130656
v 0.070711 0.076537 -0.170711
v 0.076537 -0.000000 -0.184776
v 0.070711 -0.076537 -0.170711
v 0.054120 -0.141421 -0.130656
v 0.029289 -0.184776 -0.070711
v 0.000000 -0.200000 0.000000
v 0.054120 0.184776 -0.054120
v 0.100000 0.141421 -0.100000
v 0.130656 0.076537 -0.130656
v 0.141421 -0.000000 -0.141421
v 0.130656 -0.076537 -0.130656
v 0.100000 -0.141421 -0.100000
v 0.054120 -0.184776 -0.054120
v 0.070711 0.184776 -0.029289
v 0.130656 0.141421 -0.054120
v 0.170711 0.076537 -0.070711
v 0.184776 -0.000000 -0.076537
v 0.170711 -0.076537 -0.070711
v 0.130656 -0.141421 -0.054120
v 0.070711 -0.184776 -0.029289
vt 0.884992 0.271189
vt 0.899500 0.394687
vt 0.858179 0.278394
vt 0.048651 0.394687
vt 0.059374 0.519081
vt 0.009153 0.405236
vt 0.070348 0.643416
vt 0.010532 0.532091
vt 0.086027 0.766635
vt 0.011992 0.658943
vt 0.122370 0.884798
vt 0.014209 0.785773
vt 0.291593 0.953743
vt 0.020432 0.912482
vt 0.860003 0.405236
vt 0.831275 0.274395
vt 0.861381 0.532091
vt 0.820416 0.399370
vt 0.862841 0.658943
vt 0.812309 0.524835
vt 0.865058 0.785773
vt 0.803887 0.650244
vt 0.871281 0.912482
vt 0.791541 0.774953
vt 0.388391 0.993699
vt 0.760727 0.896300
vt 0.804905 0.259437
vt 0.781305 0.377665
vt 0.764473 0.498448
vt 0.748099 0.619402
vt 0.726532 0.738405
vt 0.558668 0.967348
vt 0.685085 0.849564
vt 0.779660 0.234407
vt 0.742782 0.342132
vt 0.718347 0.456715
vt 0.696745 0.572796
vt 0.671734 0.687071
vt 0.567006 0.919244
vt 0.632981 0.793720
vt 0.756140 0.200683
vt 0.704080 0.295741
vt 0.672924 0.404817
vt 0.648434 0.517956
vt 0.623493 0.630825
vt 0.553260 0.872421
vt 0.590518 0.738763
vt 0.735219 0.159964
vt 0.663022 0.242092
vt 0.625798 0.348608
vt 0.600533 0.462101
vt 0.577884 0.577059
vt 0.533376 0.830036
vt 0.551444 0.689889
vt 0.719089 0.114183
vt 0.614681 0.185803
vt 0.573328 0.294976
vt 0.550277 0.412362
vt 0.532128 0.531838
vt 0.510488 0.794117
vt 0.512998 0.650899
vt 0.717018 0.065905
vt 0.547795 0.134850
vt 0.511452 0.253013
vt 0.495773 0.376232
vt 0.484798 0.500567
vt 0.485673 0.766429
vt 0.474075 0.624961
vt 0.813816 0.025949
vt 0.445857 0.107166
vt 0.439633 0.233875
vt 0.437417 0.360705
vt 0.435957 0.487557
vt 0.459568 0.748459
vt 0.434578 0.614412
vt 0.984092 0.052300
vt 0.335302 0.123347
vt 0.366117 0.244695
vt 0.378463 0.369404
vt 0.386884 0.494813
vt 0.432755 0.741254
vt 0.394991 0.620278
vt 0.133243 0.052300
vt 0.141581 0.100404
vt 0.259661 0.170084
vt 0.301107 0.281243
vt 0.322675 0.400246
vt 0.339049 0.521200
vt 0.405851 0.745253
vt 0.355880 0.641983
vt 0.127836 0.147227
vt 0.207556 0.225928
vt 0.246309 0.332577
vt 0.271320 0.446852
vt 0.292922 0.562933
vt 0.379481 0.760211
vt 0.317358 0.677516
vt 0.107952 0.189612
vt 0.165094 0.280885
vt 0.198068 0.388823
vt 0.223009 0.501692
vt 0.247499 0.614831
vt 0.354236 0.785241
vt 0.278655 0.723907
vt 0.085063 0.225531
vt 0.126019 0.329759
vt 0.152460 0.442589
vt 0.175108 0.557546
vt 0.200374 0.671040
vt 0.330716 0.818965
vt 0.237597 0.777556
vt 0.060249 0.253219
vt 0.087573 0.368749
vt 0.106703 0.487810
vt 0.124853 0.607286
vt 0.147903 0.724672
vt 0.309795 0.859684
vt 0.189256 0.833845
vt 0.854302 0.151615
vt 0.428878 0.868033
vt 0.992430 0.100404
vt 0.978684 0.147227
vt 0.958801 0.189612
vt 0.935912 0.225531
vt 0.911098 0.253219
vt 0.293665 0.905466
vt 0.822362 0.005530
vt 0.034143 0.271189
vn 0.403088 -0.915159 0.000000
vn 0.718833 -0.695151 0.000000
vn 0.372387 -0.915159 0.154241
vn 0.927274 -0.374340 0.000000
vn 0.664113 -0.695151 0.275094
vn 1.000000 0.000000 0.000000
vn 0.856685 -0.374340 0.354839
vn 0.927274 0.374340 0.000000
vn 0.923856 0.000000 0.382672
vn 0.718833 0.695151 0.000000
vn 0.856685 0.374340 0.354839
vn 0.403088 0.915159 0.000000
vn 0.664113 0.695151 0.275094
vn 0.285012 -0.915159 0.285012
vn 0.508286 -0.695151 0.508286
vn 0.655660 -0.374340 0.655660
vn 0.707083 0.000000 0.707083
vn 0.655660 0.374340 0.655660
vn 0.372387 0.915159 0.154241
vn 0.508286 0.695151 0.508286
vn 0.154241 -0.915159 0.372387
vn 0.275094 -0.695151 0.664113
vn 0.354839 -0.374340 0.856685
vn 0.382672 0.000000 0.923856
vn 0.354839 0.374340 0.856685
vn 0.285012 0.915159 0.285012
vn 0.275094 0.695151 0.664113
vn 0.000000 -0.915159 0.403088
vn 0.000000 -0.695151 0.718833
vn 0.000000 -0.374340 0.927274
vn 0.000000 0.000000 1.000000
vn 0.000000 0.374340 0.927274
vn 0.154241 0.915159 0.372387
vn 0.000000 0.695151 0.718833
vn -0.154241 -0.915159 0.372387
vn -0.275094 -0.695151 0.664113
vn -0.354839 -0.374340 0.856685
vn -0.382672 0.000000 0.923856
vn -0.354839 0.374340 0.856685
vn 0.000000 0.915159 0.403088
vn -0.275094 0.695151 0.664113
vn -0.285012 -0.915159 0.285012
vn -0.508286 -0.695151 0.508286
vn -0.655660 -0.374340 0.655660
vn -0.707083 0.000000 0.707083
vn -0.655660 0.374340 0.655660
vn -0.154241 0.915159 0.372387
vn -0.508286 0.695151 0.508286
vn -0.372387 -0.915159 0.154241
vn -0.664113 -0.695151 0.275094
vn -0.856685 -0.374340 0.354839
vn -0.923856 0.000000 0.382672
vn -0.856685 0.374340 0.354839
vn -0.285012 0.915159 0.285012
vn -0.664113 0.695151 0.275094
vn -0.403088 -0.915159 0.000000
vn -0.718833 -0.695151 0.000000
vn -0.927274 -0.374340 0.000000
vn -1.000000 0.000000 0.000000
vn -0.927274 0.374340 0.000000
vn -0.372387 0.915159 0.154241
vn -0.718833 0.695151 0.000000
vn -0.372387 -0.915159 -0.154241
vn -0.664113 -0.695151 -0.275094
vn -0.856685 -0.374340 -0.354839
vn -0.923856 0.000000 -0.382672
vn -0.856685 0.374340 -0.354839
vn -0.403088 0.915159 0.000000
vn -0.664113 0.695151 -0.275094
vn -0.285012 -0.915159 -0.285012
vn -0.508286 -0.695151 -0.508286
vn -0.655660 -0.374340 -0.655660
vn -0.707083 0.000000 -0.707083
vn -0.655660 0.374340 -0.655660
vn -0.372387 0.915159 -0.154241
vn -0.508286 0.695151 -0.508286
vn -0.154241 -0.915159 -0.372387
vn -0.275094 -0.695151 -0.664113
vn -0.354839 -0.374340 -0.856685
vn -0.382672 0.000000 -0.923856
vn -0.354839 0.374340 -0.856685
vn -0.285012 0.915159 -0.285012
vn -0.275094 0.695151 -0.664113
vn 0.000000 -0.915159 -0.403088
vn 0.000000 -0.695151 -0.718833
vn 0.000000 -0.374340 -0.927274
vn 0.000000 0.000000 -1.000000
vn 0.000000 0.374340 -0.927274
vn -0.154241 0.915159 -0.372387
vn 0.000000 0.695151 -0.718833
vn 0.154241 -0.915159 -0.372387
vn 0.275094 -0.695151 -0.664113
vn 0.354839 -0.374340 -0.856685
vn 0.382672 0.000000 -0.923856
vn 0.354839 0.374340 -0.856685
vn 0.000000 0.915159 -0.403088
vn 0.275094 0.695151 -0.664113
vn 0.285012 -0.915159 -0.285012
vn 0.508286 -0.695151 -0.508286
vn 0.655660 -0.374340 -0.655660
vn 0.707083 0.000000 -0.707083
vn 0.655660 0.374340 -0.655660
vn 0.154241 0.915159 -0.372387
vn 0.508286 0.695151 -0.508286
vn 0.372387 -0.915159 -0.154241
vn 0.664113 -0.695151 -0.275094
vn 0.856685 -0.374340 -0.354839
vn 0.923856 0.000000 -0.382672
vn 0.856685 0.374340 -0.354839
vn 0.285012 0.915159 -0.285012
vn 0.664113 0.695151 -0.275094
vn 0.000000 -1.000000 0.000000
vn 0.000000 1.000000 0.000000
vn 0.372387 0.915159 -0.154241
s 1
f 7/1/1 6/2/2 14/3/3
f 6/4/2 5/5/4 13/6/5
f 5/5/4 4/7/6 12/8/7
f 4/7/6 3/9/8 11/10/9
f 3/9/8 2/11/10 10/12/11
f 2/11/10 1/13/12 9/14/13
f 14/3/3 13/15/5 21/16/14
f 13/15/5 12/17/7 20/18/15
f 12/17/7 11/19/9 19/20/16
f 11/19/9 10/21/11 18/22/17
f 10/21/11 9/23/13 17/24/18
f 9/23/13 8/25/19 16/26/20
f 21/16/14 20/18/15 28/27/21
f 20/18/15 19/20/16 27/28/22
f 19/20/16 18/22/17 26/29/23
f 18/22/17 17/24/18 25/30/24
f 17/24/18 16/26/20 24/31/25
f 16/26/20 15/32/26 23/33/27
f 28/27/21 27/28/22 35/34/28
f 27/28/22 26/29/23 34/35/29
f 26/29/23 25/30/24 33/36/30
f 25/30/24 24/31/25 32/37/31
f 24/31/25 23/33/27 31/38/32
f 23/33/27 22/39/33 30/40/34
f 35/34/28 34/35/29 43/41/35
f 34/35/29 33/36/30 42/42/36
f 33/36/30 32/37/31 41/43/37
f 32/37/31 31/38/32 40/44/38
f 31/38/32 30/40/34 39/45/39
f 30/40/34 29/46/40 38/47/41
f 43/41/35 42/42/36 50/48/42
f 42/42/36 41/43/37 49/49/43
f 41/43/37 40/44/38 48/50/44
f 40/44/38 39/45/39 47/51/45
f 39/45/39 38/47/41 46/52/46
f 38/47/41 37/53/47 45/54/48
f 50/48/42 49/49/43 57/55/49
f 49/49/43 48/50/44 56/56/50
f 48/50/44 47/51/45 55/57/51
f 47/51/45 46/52/46 54/58/52
f 46/52/46 45/54/48 53/59/53
f 45/54/48 44/60/54 52/61/55
f 57/55/49 56/56/50 64/62/56
f 56/56/50 55/57/51 63/63/57
f 55/57/51 54/58/52 62/64/58
f 54/58/52 53/59/53 61/65/59
f 53/59/53 52/61/55 60/66/60
f 52/61/55 51/67/61 59/68/62
f 64/62/56 63/63/57 71/69/63
f 63/63/57 62/64/58 70/70/64
f 62/64/58 61/65/59 69/71/65
f 61/65/59 60/66/60 68/72/66
f 60/66/60 59/68/62 67/73/67
f 59/68/62 58/74/68 66/75/69
f 71/69/63 70/70/64 78/76/70
f 70/70/64 69/71/65 77/77/71
f 69/71/65 68/72/66 76/78/72
f 68/72/66 67/73/67 75/79/73
f 67/73/67 66/75/69 74/80/74
f 66/75/69 65/81/75 73/82/76
f 78/83/70 77/77/71 85/84/77
f 77/77/71 76/78/72 84/85/78
f 76/78/72 75/79/73 83/86/79
f 75/79/73 74/80/74 82/87/80
f 74/80/74 73/82/76 81/88/81
f 73/82/76 72/89/82 80/90/83
f 85/84/77 84/85/78 92/91/84
f 84/85/78 83/86/79 91/92/85
f 83/86/79 82/87/80 90/93/86
f 82/87/80 81/88/81 89/94/87
f 81/88/81 80/90/83 88/95/88
f 80/90/83 79/96/89 87/97/90
f 92/91/84 91/92/85 99/98/91
f 91/92/85 90/93/86 98/99/92
f 90/93/86 89/94/87 97/100/93
f 89/94/87 88/95/88 96/101/94
f 88/95/88 87/97/90 95/102/95
f 87/97/90 86/103/96 94/104/97
f 99/98/91 98/99/92 107/105/98
f 98/99/92 97/100/93 106/106/99
f 97/100/93 96/101/94 105/107/100
f 96/101/94 95/102/95 104/108/101
f 95/102/95 94/104/97 103/109/102
f 94/104/97 93/110/103 102/111/104
f 107/105/98 106/106/99 114/112/105
f 106/106/99 105/107/100 113/113/106
f 105/107/100 104/108/101 112/114/107
f 104/108/101 103/109/102 111/115/108
f 103/109/102 102/111/104 110/116/109
f 102/111/104 101/117/110 109/118/111
f 100/119/112 7/1/1 14/3/3
f 1/13/12 36/120/113 8/25/19
f 100/119/112 14/3/3 21/16/14
f 8/25/19 36/120/113 15/32/26
f 100/119/112 21/16/14 28/27/21
f 15/32/26 36/120/113 22/39/33
f 100/119/112 28/27/21 35/34/28
f 22/39/33 36/120/113 29/46/40
f 100/119/112 35/34/28 43/41/35
f 29/46/40 36/120/113 37/53/47
f 100/119/112 43/41/35 50/48/42
f 37/53/47 36/120/113 44/60/54
f 100/119/112 50/48/42 57/55/49
f 44/60/54 36/120/113 51/67/61
f 100/119/112 57/55/49 64/62/56
f 51/67/61 36/120/113 58/74/68
f 100/119/112 64/62/56 71/69/63
f 58/74/68 36/120/113 65/81/75
f 100/119/112 71/69/63 78/76/70
f 65/81/75 36/120/113 72/89/82
f 100/119/112 78/76/70 85/121/77
f 72/89/82 36/120/113 79/96/89
f 100/119/112 85/121/77 92/122/84
f 79/96/89 36/120/113 86/103/96
f 100/119/112 92/122/84 99/123/91
f 86/103/96 36/120/113 93/110/103
f 100/119/112 99/123/91 107/124/98
f 93/110/103 36/120/113 101/117/110
f 100/119/112 107/124/98 114/125/105
f 101/117/110 36/120/113 108/126/114
f 100/119/112 114/125/105 7/1/1
f 114/112/105 113/113/106 6/4/2
f 113/113/106 112/114/107 5/5/4
f 112/114/107 111/115/108 5/5/4
f 111/115/108 110/116/109 4/7/6
f 110/116/109 109/118/111 3/9/8
f 109/118/111 108/126/114 2/11/10
f 108/126/114 36/120/113 1/13/12
f 6/2/2 13/15/5 14/3/3
f 5/5/4 12/8/7 13/6/5
f 4/7/6 11/10/9 12/8/7
f 3/9/8 10/12/11 11/10/9
f 2/11/10 9/14/13 10/12/11
f 1/13/12 8/25/19 9/14/13
f 13/15/5 20/18/15 21/16/14
f 12/17/7 19/20/16 20/18/15
f 11/19/9 18/22/17 19/20/16
f 10/21/11 17/24/18 18/22/17
f 9/23/13 16/26/20 17/24/18
f 8/25/19 15/32/26 16/26/20
f 20/18/15 27/28/22 28/27/21
f 19/20/16 26/29/23 27/28/22
f 18/22/17 25/30/24 26/29/23
f 17/24/18 24/31/25 25/30/24
f 16/26/20 23/33/27 24/31/25
f 15/32/26 22/39/33 23/33/27
f 27/28/22 34/35/29 35/34/28
f 26/29/23 33/36/30 34/35/29
f 25/30/24 32/37/31 33/36/30
f 24/31/25 31/38/32 32/37/31
f 23/33/27 30/40/34 31/38/32
f 22/39/33 29/46/40 30/40/34
f 34/35/29 42/42/36 43/41/35
f 33/36/30 41/43/37 42/42/36
f 32/37/31 40/44/38 41/43/37
f 31/38/32 39/45/39 40/44/38
f 30/40/34 38/47/41 39/45/39
f 29/46/40 37/53/47 38/47/41
f 42/42/36 49/49/43 50/48/42
f 41/43/37 48/50/44 49/49/43
f 40/44/38 47/51/45 48/50/44
f 39/45/39 46/52/46 47/51/45
f 38/47/41 45/54/48 46/52/46
f 37/53/47 44/60/54 45/54/48
f 49/49/43 56/56/50 57/55/49
f 48/50/44 55/57/51 56/56/50
f 47/51/45 54/58/52 55/57/51
f 46/52/46 53/59/53 54/58/52
f 45/54/48 52/61/55 53/59/53
f 44/60/54 51/67/61 52/61/55
f 56/56/50 63/63/57 64/62/56
f 55/57/51 62/64/58 63/63/57
f 54/58/52 61/65/59 62/64/58
f 53/59/53 60/66/60 61/65/59
f 52/61/55 59/68/62 60/66/60
f 51/67/61 58/74/68 59/68/62
f 63/63/57 70/70/64 71/69/63
f 62/64/58 69/71/65 70/70/64
f 61/65/59 68/72/66 69/71/65
f 60/66/60 67/73/67 68/72/66
f 59/68/62 66/75/69 67/73/67
f 58/74/68 65/81/75 66/75/69
f 70/70/64 77/127/71 78/76/70
f 69/71/65 76/78/72 77/77/71
f 68/72/66 75/79/73 76/78/72
f 67/73/67 74/80/74 75/79/73
f 66/75/69 73/82/76 74/80/74
f 65/81/75 72/89/82 73/82/76
f 77/77/71 84/85/78 85/84/77
f 76/78/72 83/86/79 84/85/78
f 75/79/73 82/87/80 83/86/79
f 74/80/74 81/88/81 82/87/80
f 73/82/76 80/90/83 81/88/81
f 72/89/82 79/96/89 80/90/83
f 84/85/78 91/92/85 92/91/84
f 83/86/79 90/93/86 91/92/85
f 82/87/80 89/94/87 90/93/86
f 81/88/81 88/95/88 89/94/87
f 80/90/83 87/97/90 88/95/88
f 79/96/89 86/103/96 87/97/90
f 91/92/85 98/99/92 99/98/91
f 90/93/86 97/100/93 98/99/92
f 89/94/87 96/101/94 97/100/93
f 88/95/88 95/102/95 96/101/94
f 87/97/90 94/104/97 95/102/95
f 86/103/96 93/110/103 94/104/97
f 98/99/92 106/106/99 107/105/98
f 97/100/93 105/107/100 106/106/99
f 96/101/94 104/108/101 105/107/100
f 95/102/95 103/109/102 104/108/101
f 94/104/97 102/111/104 103/109/102
f 93/110/103 101/117/110 102/111/104
f 106/106/99 113/113/106 114/112/105
f 105/107/100 112/114/107 113/113/106
f 104/108/101 111/115/108 112/114/107
f 103/109/102 110/116/109 111/115/108
f 102/111/104 109/118/111 110/116/109
f 101/117/110 108/126/114 109/118/111
f 7/128/1 114/112/105 6/4/2
f 6/4/2 113/113/106 5/5/4
f 111/115/108 4/7/6 5/5/4
f 110/116/109 3/9/8 4/7/6
f 109/118/111 2/11/10 3/9/8
f 108/126/114 1/13/12 2/11/10
