# Blender v2.72 (sub 0) OBJ File: 'Pacman_mouth.blend'
# www.blender.org
v -0.162212 -0.108387 -0.980785
v -0.318190 -0.212608 -0.923879
v -0.461940 -0.308659 -0.831469
v -0.587938 -0.392848 -0.707107
v -0.691342 -0.461940 -0.555570
v -0.768178 -0.513280 -0.382683
v -0.815493 -0.544895 -0.195090
v -0.831470 -0.555570 0.000000
v -0.815493 -0.544895 0.195091
v -0.768178 -0.513280 0.382684
v -0.691342 -0.461939 0.555570
v -0.587938 -0.392847 0.707107
v -0.461940 -0.308658 0.831470
v -0.318190 -0.212607 0.923880
v -0.162212 -0.108386 0.980785
v -0.137950 -0.137950 -0.980785
v -0.270598 -0.270599 -0.923879
v -0.392848 -0.392848 -0.831469
v -0.500000 -0.500000 -0.707106
v -0.587938 -0.587938 -0.555570
v -0.653282 -0.653282 -0.382683
v -0.693520 -0.693520 -0.195090
v -0.707107 -0.707107 0.000000
v -0.693520 -0.693520 0.195091
v -0.653282 -0.653281 0.382684
v -0.587938 -0.587937 0.555571
v -0.500000 -0.500000 0.707107
v -0.392848 -0.392847 0.831470
v -0.270598 -0.270597 0.923880
v -0.137950 -0.137949 0.980785
v -0.108387 -0.162212 -0.980785
v -0.212608 -0.318190 -0.923879
v -0.308659 -0.461940 -0.831469
v -0.392848 -0.587938 -0.707106
v -0.461940 -0.691342 -0.555570
v -0.513280 -0.768178 -0.382683
v -0.544895 -0.815493 -0.195090
v -0.555570 -0.831470 0.000000
v -0.544895 -0.815493 0.195091
v -0.513280 -0.768177 0.382684
v -0.461940 -0.691341 0.555571
v -0.392848 -0.587937 0.707107
v -0.308659 -0.461939 0.831470
v -0.212608 -0.318189 0.923880
v -0.108387 -0.162211 0.980785
v -0.000000 0.000001 1.000000
v -0.074658 -0.180241 -0.980785
v -0.146447 -0.353554 -0.923879
v -0.212608 -0.513281 -0.831469
v -0.270598 -0.653282 -0.707106
v -0.318190 -0.768178 -0.555570
v -0.353554 -0.853554 -0.382683
v -0.375330 -0.906127 -0.195090
v -0.382684 -0.923880 0.000001
v -0.375330 -0.906127 0.195091
v -0.353554 -0.853553 0.382684
v -0.318190 -0.768177 0.555571
v -0.270598 -0.653281 0.707107
v -0.212608 -0.513279 0.831470
v -0.146447 -0.353553 0.923880
v -0.074658 -0.180239 0.980785
v -0.038061 -0.191342 -0.980785
v -0.074658 -0.375331 -0.923879
v -0.108387 -0.544896 -0.831469
v -0.137950 -0.693520 -0.707106
v -0.162212 -0.815493 -0.555570
v -0.180240 -0.906128 -0.382683
v -0.191342 -0.961940 -0.195090
v -0.195090 -0.980785 0.000001
v -0.191342 -0.961939 0.195091
v -0.180240 -0.906127 0.382684
v -0.162212 -0.815492 0.555571
v -0.137950 -0.693519 0.707107
v -0.108387 -0.544894 0.831470
v -0.074658 -0.375330 0.923880
v -0.038061 -0.191341 0.980785
v -0.000000 -0.000001 -1.000000
vt 0.325633 0.438804
vt 0.316682 0.426726
vt 0.328867 0.379778
vt 0.637246 0.405289
vt 0.647686 0.385468
vt 0.664770 0.430926
vt 0.614815 0.368990
vt 0.589457 0.336373
vt 0.605115 0.301059
vt 0.560180 0.309381
vt 0.526445 0.290534
vt 0.537611 0.239433
vt 0.451075 0.286826
vt 0.439924 0.234728
vt 0.490092 0.227783
vt 0.416059 0.303056
vt 0.386336 0.328871
vt 0.366542 0.293462
vt 0.342253 0.398713
vt 0.344715 0.334838
vt 0.657720 0.443873
vt 0.680620 0.477298
vt 0.311087 0.480650
vt 0.306635 0.474794
vt 0.628318 0.341742
vt 0.575790 0.265672
vt 0.489112 0.282481
vt 0.397512 0.258494
vt 0.362070 0.361521
vt 0.306724 0.418448
vt 0.660538 0.370763
vt 0.673152 0.421484
vt 0.627708 0.272833
vt 0.562083 0.191450
vt 0.418843 0.185005
vt 0.496290 0.172998
vt 0.338763 0.266062
vt 0.313312 0.366512
vt 0.323029 0.315429
vt 0.684768 0.472659
vt 0.301800 0.470828
vt 0.645964 0.320939
vt 0.602258 0.228216
vt 0.366751 0.220561
vt 0.296203 0.414441
vt 0.675290 0.362123
vt 0.682538 0.416009
vt 0.657281 0.255109
vt 0.617203 0.152914
vt 0.359528 0.145219
vt 0.530695 0.117809
vt 0.302298 0.251322
vt 0.296319 0.359987
vt 0.297816 0.305591
vt 0.689357 0.469986
vt 0.296778 0.468924
vt 0.667169 0.308425
vt 0.643340 0.202671
vt 0.314732 0.197406
vt 0.285661 0.414951
vt 0.691107 0.360174
vt 0.692501 0.414780
vt 0.690878 0.250971
vt 0.707459 0.141856
vt 0.997370 0.038668
vt 0.995536 0.085233
vt 0.782038 0.088301
vt 0.261760 0.253287
vt 0.279054 0.360822
vt 0.271472 0.306866
vt 0.694207 0.469388
vt 0.291781 0.469165
vt 0.690346 0.305570
vt 0.694422 0.196386
vt 0.246205 0.200746
vt 0.203695 0.153092
vt 0.297675 0.523420
vt 0.696024 0.523997
vt 0.677072 0.483716
vn -0.612100 0.398900 -0.682800
vn -0.274300 -0.274300 -0.921700
vn -0.395800 -0.395800 -0.828600
vn -0.717100 0.321200 0.618500
vn -0.395800 -0.395800 0.828600
vn -0.274300 -0.274300 0.921700
vn -0.810300 0.252400 0.528900
vn -0.887400 0.195300 0.417400
vn -0.589300 -0.589300 0.552800
vn -0.945200 0.152700 0.288500
vn -0.981000 0.126300 0.147300
vn -0.693700 -0.693700 0.193900
vn -0.981000 0.126300 -0.147300
vn -0.693700 -0.693700 -0.193900
vn -0.707100 -0.707100 0.000000
vn -0.945200 0.152700 -0.288500
vn -0.887400 0.195300 -0.417400
vn -0.589300 -0.589300 -0.552800
vn -0.717100 0.321200 -0.618500
vn -0.502100 -0.502100 -0.704000
vn -0.612100 0.398900 0.682800
vn -0.142100 -0.142100 0.979600
vn -0.499700 0.482100 -0.719600
vn -0.142100 -0.142100 -0.979600
vn -0.502100 -0.502100 0.704000
vn -0.653900 -0.653900 0.380500
vn -0.993100 0.117400 0.000000
vn -0.653900 -0.653900 -0.380500
vn -0.810300 0.252400 -0.528900
vn -0.215500 -0.322500 -0.921700
vn -0.311000 -0.465400 0.828600
vn -0.215500 -0.322500 0.921700
vn -0.463000 -0.692900 0.552800
vn -0.545000 -0.815700 0.193900
vn -0.545000 -0.815700 -0.193900
vn -0.555600 -0.831400 0.000000
vn -0.463000 -0.692900 -0.552800
vn -0.311000 -0.465400 -0.828600
vn -0.394500 -0.590400 -0.704000
vn -0.111600 -0.167100 0.979600
vn -0.111600 -0.167100 -0.979600
vn -0.394500 -0.590400 0.704000
vn -0.513700 -0.768900 0.380500
vn -0.513700 -0.768900 -0.380500
vn -0.148400 -0.358300 -0.921700
vn -0.214200 -0.517100 0.828600
vn -0.148400 -0.358300 0.921700
vn -0.318900 -0.769900 0.552800
vn -0.375400 -0.906300 0.193900
vn -0.375400 -0.906300 -0.193900
vn -0.382700 -0.923900 0.000000
vn -0.318900 -0.769900 -0.552800
vn -0.214200 -0.517100 -0.828600
vn -0.271700 -0.656100 -0.704000
vn -0.076900 -0.185600 0.979600
vn -0.076900 -0.185600 -0.979600
vn -0.271700 -0.656100 0.704000
vn -0.353900 -0.854400 0.380500
vn -0.353900 -0.854400 -0.380500
vn -0.113100 -0.372700 -0.921000
vn -0.163000 -0.537400 0.827400
vn -0.113100 -0.372700 0.921000
vn -0.242300 -0.798600 0.550900
vn -0.284800 -0.938900 0.193000
vn -0.284800 -0.938900 -0.193000
vn -0.290300 -0.956900 0.000000
vn -0.242300 -0.798600 -0.550900
vn -0.163000 -0.537400 -0.827400
vn -0.206600 -0.681200 -0.702300
vn -0.058600 -0.193200 0.979400
vn -0.058600 -0.193200 -0.979400
vn -0.206600 -0.681200 0.702300
vn -0.268600 -0.885600 0.379000
vn -0.268600 -0.885600 -0.379000
vn -0.523800 0.707900 -0.473800
vn -0.523800 0.707900 0.473800
vn -0.499700 0.482100 0.719600
s 1
f 2/1/1 17/2/2 18/3/3
f 13/4/4 28/5/5 29/6/6
f 12/7/7 11/8/8 26/9/9
f 10/10/10 9/11/11 24/12/12
f 7/13/13 22/14/14 23/15/15
f 6/16/16 5/17/17 20/18/18
f 3/19/19 18/3/3 19/20/20
f 14/21/21 29/6/6 30/22/22
f 2/1/1 1/23/23 16/24/24
f 13/4/4 12/7/7 27/25/25
f 10/10/10 25/26/26 26/9/9
f 9/11/11 8/27/27 23/15/15
f 6/16/16 21/28/28 22/14/14
f 4/29/29 19/20/20 20/18/18
f 18/3/3 17/2/2 32/30/30
f 28/5/5 43/31/31 44/32/32
f 27/25/25 26/9/9 41/33/33
f 25/26/26 24/12/12 39/34/34
f 22/14/14 37/35/35 38/36/36
f 21/28/28 20/18/18 35/37/37
f 18/3/3 33/38/38 34/39/39
f 29/6/6 44/32/32 45/40/40
f 16/24/24 31/41/41 32/30/30
f 27/25/25 42/42/42 43/31/31
f 25/26/26 40/43/43 41/33/33
f 23/15/15 38/36/36 39/34/34
f 21/28/28 36/44/44 37/35/35
f 19/20/20 34/39/39 35/37/37
f 33/38/38 32/30/30 48/45/45
f 43/31/31 59/46/46 60/47/47
f 42/42/42 41/33/33 57/48/48
f 40/43/43 39/34/34 55/49/49
f 37/35/35 53/50/50 54/51/51
f 36/44/44 35/37/37 51/52/52
f 33/38/38 49/53/53 50/54/54
f 44/32/32 60/47/47 61/55/55
f 32/30/30 31/41/41 47/56/56
f 42/42/42 58/57/57 59/46/46
f 40/43/43 56/58/58 57/48/48
f 38/36/36 54/51/51 55/49/49
f 36/44/44 52/59/59 53/50/50
f 34/39/39 50/54/54 51/52/52
f 49/53/53 48/45/45 63/60/60
f 59/46/46 74/61/61 75/62/62
f 58/57/57 57/48/48 72/63/63
f 56/58/58 55/49/49 70/64/64
f 53/65/50 68/66/65 69/67/66
f 52/59/59 51/52/52 66/68/67
f 49/53/53 64/69/68 65/70/69
f 60/47/47 75/62/62 76/71/70
f 47/56/56 62/72/71 63/60/60
f 59/46/46 58/57/57 73/73/72
f 56/58/58 71/74/73 72/63/63
f 54/51/51 69/67/66 70/64/64
f 52/59/59 67/75/74 68/76/65
f 50/54/54 65/70/69 66/68/67
f 5/17/17 6/16/16 7/13/13
f 1/23/23 77/77/75 16/24/24
f 46/78/76 15/79/77 30/22/22
f 16/24/24 77/77/75 31/41/41
f 46/78/76 30/22/22 45/40/40
f 31/41/41 77/77/75 47/56/56
f 46/78/76 45/40/40 61/55/55
f 47/56/56 77/77/75 62/72/71
f 46/78/76 61/55/55 76/71/70
f 3/19/19 2/1/1 18/3/3
f 14/21/21 13/4/4 29/6/6
f 27/25/25 12/7/7 26/9/9
f 25/26/26 10/10/10 24/12/12
f 8/27/27 7/13/13 23/15/15
f 21/28/28 6/16/16 20/18/18
f 4/29/29 3/19/19 19/20/20
f 15/79/77 14/21/21 30/22/22
f 17/2/2 2/1/1 16/24/24
f 28/5/5 13/4/4 27/25/25
f 11/8/8 10/10/10 26/9/9
f 24/12/12 9/11/11 23/15/15
f 7/13/13 6/16/16 22/14/14
f 5/17/17 4/29/29 20/18/18
f 33/38/38 18/3/3 32/30/30
f 29/6/6 28/5/5 44/32/32
f 42/42/42 27/25/25 41/33/33
f 40/43/43 25/26/26 39/34/34
f 23/15/15 22/14/14 38/36/36
f 36/44/44 21/28/28 35/37/37
f 19/20/20 18/3/3 34/39/39
f 30/22/22 29/6/6 45/40/40
f 17/2/2 16/24/24 32/30/30
f 28/5/5 27/25/25 43/31/31
f 26/9/9 25/26/26 41/33/33
f 24/12/12 23/15/15 39/34/34
f 22/14/14 21/28/28 37/35/35
f 20/18/18 19/20/20 35/37/37
f 49/53/53 33/38/38 48/45/45
f 44/32/32 43/31/31 60/47/47
f 58/57/57 42/42/42 57/48/48
f 56/58/58 40/43/43 55/49/49
f 38/36/36 37/35/35 54/51/51
f 52/59/59 36/44/44 51/52/52
f 34/39/39 33/38/38 50/54/54
f 45/40/40 44/32/32 61/55/55
f 48/45/45 32/30/30 47/56/56
f 43/31/31 42/42/42 59/46/46
f 41/33/33 40/43/43 57/48/48
f 39/34/34 38/36/36 55/49/49
f 37/35/35 36/44/44 53/50/50
f 35/37/37 34/39/39 51/52/52
f 64/69/68 49/53/53 63/60/60
f 60/47/47 59/46/46 75/62/62
f 73/73/72 58/57/57 72/63/63
f 71/74/73 56/58/58 70/64/64
f 54/51/51 53/65/50 69/67/66
f 67/75/74 52/59/59 66/68/67
f 50/54/54 49/53/53 65/70/69
f 61/55/55 60/47/47 76/71/70
f 48/45/45 47/56/56 63/60/60
f 74/61/61 59/46/46 73/73/72
f 57/48/48 56/58/58 72/63/63
f 55/49/49 54/51/51 70/64/64
f 53/50/50 52/59/59 68/76/65
f 51/52/52 50/54/54 66/68/67
f 46/78/76 11/8/8 15/79/77
f 14/21/21 11/8/8 13/4/4
f 11/8/8 14/21/21 15/79/77
f 10/10/10 11/8/8 9/11/11
f 5/17/17 9/11/11 77/77/75
f 4/29/29 5/17/17 3/19/19
f 77/77/75 1/23/23 2/1/1
f 77/77/75 11/8/8 46/78/76
f 7/13/13 9/11/11 5/17/17
f 7/13/13 8/27/27 9/11/11
f 2/1/1 5/17/17 77/77/75
f 9/11/11 11/8/8 77/77/75
f 11/8/8 12/7/7 13/4/4
f 5/17/17 2/1/1 3/19/19
